<?xml version="1.0" encoding="iso-8859-1"?>
<!-- Generator: Adobe Illustrator 19.0.0, SVG Export Plug-In . SVG Version: 6.00 Build 0)  -->
<svg xmlns="http://www.w3.org/2000/svg" xmlns:xlink="http://www.w3.org/1999/xlink" version="1.1" id="Layer_1" x="0px" y="0px" viewBox="0 0 512 512" style="enable-background:new 0 0 512 512;" xml:space="preserve" width="512" height="512">
<g id="XMLID_603_">
	<g id="XMLID_604_">
		<g id="XMLID_605_">
			<g id="XMLID_606_">
				<g id="XMLID_607_">
					<path id="XMLID_2372_" style="fill:#1685FB;" d="M487.42,66.851H24.58c-9.433,0-17.08,7.647-17.08,17.08v344.138       c0,9.433,7.647,17.08,17.08,17.08h462.84c9.433,0,17.08-7.647,17.08-17.08V83.931C504.5,74.498,496.853,66.851,487.42,66.851z"/>
					<path id="XMLID_2369_" style="fill:#4C60E1;" d="M504.5,428.064V83.935c0-9.44-7.65-17.08-17.08-17.08h-27.5       c9.43,0,17.08,7.64,17.08,17.08v344.13c0,9.44-7.65,17.08-17.08,17.08h27.5C496.85,445.145,504.5,437.505,504.5,428.064z"/>
					<path id="XMLID_2366_" style="fill:#E3F4FF;" d="M504.5,140.814v-56.88c0-9.44-7.65-17.08-17.08-17.08H24.58       c-9.43,0-17.08,7.64-17.08,17.08v56.88H504.5z"/>
					<path id="XMLID_2363_" style="fill:#BDDFF4;" d="M504.5,140.814v-56.88c0-9.44-7.65-17.08-17.08-17.08h-27.5       c9.43,0,17.08,7.64,17.08,17.08v56.88H504.5z"/>
				</g>
			</g>
		</g>
		<g id="XMLID_608_">
			<g id="XMLID_613_">
				<g id="XMLID_614_">
					<path id="XMLID_615_" style="fill:#FD9E28;" d="M168.929,247.64h-6.505v-8.872c0-7.397-5.996-13.393-13.393-13.393       c-7.397,0-13.393,5.996-13.393,13.393v8.872h-31.254l22.505-38.1c3.762-6.369,1.648-14.581-4.72-18.342       c-6.369-3.762-14.581-1.648-18.342,4.72l-34.438,58.304c-2.445,4.14-2.483,9.274-0.1,13.45       c2.384,4.176,6.823,6.754,11.631,6.754h54.718v40.361c0,7.397,5.996,13.393,13.393,13.393c7.397,0,13.393-5.996,13.393-13.393       v-40.361h6.505c7.397,0,13.393-5.996,13.393-13.393C182.322,253.636,176.326,247.64,168.929,247.64z"/>
				</g>
				<g id="XMLID_616_">
					<path id="XMLID_617_" style="fill:#FD9E28;" d="M431.079,247.64h-6.505v-8.872c0-7.397-5.996-13.393-13.393-13.393       c-7.397,0-13.393,5.996-13.393,13.393v8.872h-31.254l22.505-38.1c3.762-6.369,1.648-14.581-4.72-18.342       c-6.369-3.762-14.581-1.648-18.342,4.72l-34.438,58.304c-2.445,4.14-2.483,9.274-0.1,13.45       c2.384,4.176,6.823,6.754,11.631,6.754h54.718v40.361c0,7.397,5.996,13.393,13.393,13.393c7.397,0,13.393-5.996,13.393-13.393       v-40.361h6.505c7.397,0,13.393-5.996,13.393-13.393C444.472,253.636,438.476,247.64,431.079,247.64z"/>
				</g>
			</g>
			<g id="XMLID_618_">
				<path id="XMLID_619_" style="fill:#FD9E28;" d="M273.137,328.179h-34.275c-16.957,0-30.752-13.795-30.752-30.752v-77.342      c0-16.957,13.795-30.752,30.752-30.752h34.275c16.957,0,30.752,13.795,30.752,30.752v77.342      C303.889,314.384,290.094,328.179,273.137,328.179z M244.158,218.582c-3.749,0-6.8,3.051-6.8,6.8v66.75      c0,3.749,3.051,6.799,6.8,6.799h23.683c3.749,0,6.8-3.05,6.8-6.799v-66.75c0-3.749-3.051-6.8-6.8-6.8H244.158z"/>
			</g>
		</g>
	</g>
	<g id="XMLID_622_">
		<path id="XMLID_623_" d="M504.5,364.762c-4.142,0-7.5,3.357-7.5,7.5v55.807c0,5.282-4.297,9.58-9.58,9.58H204.261    c-4.142,0-7.5,3.357-7.5,7.5s3.358,7.5,7.5,7.5H487.42c13.554,0,24.58-11.026,24.58-24.58v-55.807    C512,368.119,508.642,364.762,504.5,364.762z"/>
		<path id="XMLID_624_" d="M487.42,59.352H302.261c-4.142,0-7.5,3.357-7.5,7.5s3.358,7.5,7.5,7.5H487.42    c5.282,0,9.58,4.298,9.58,9.58v49.388H15V83.932c0-5.282,4.297-9.58,9.58-9.58h243.159c4.142,0,7.5-3.357,7.5-7.5    s-3.358-7.5-7.5-7.5H24.58C11.026,59.352,0,70.378,0,83.932v344.137c0,13.554,11.026,24.58,24.58,24.58h145.159    c4.142,0,7.5-3.357,7.5-7.5s-3.358-7.5-7.5-7.5H24.58c-5.283,0-9.58-4.298-9.58-9.58V148.319h482v189.419    c0,4.143,3.358,7.5,7.5,7.5s7.5-3.357,7.5-7.5V83.932C512,70.378,500.974,59.352,487.42,59.352z"/>
		<path id="XMLID_625_" d="M96.012,103.764c0,4.143,3.358,7.5,7.5,7.5h0.094c4.142,0,7.453-3.357,7.453-7.5s-3.405-7.5-7.547-7.5    S96.012,99.621,96.012,103.764z"/>
		<path id="XMLID_626_" d="M71.535,103.913c0.043,4.115,3.392,7.422,7.498,7.422c0.026,0,0.053,0,0.08,0l0.094-0.001    c4.142-0.044,7.418-3.436,7.375-7.578c-0.043-4.142-3.527-7.477-7.625-7.421C74.814,96.379,71.492,99.771,71.535,103.913z"/>
		<path id="XMLID_627_" d="M54.479,96.406c-4.142,0.043-7.465,3.436-7.422,7.578c0.042,4.115,3.392,7.422,7.498,7.422    c0.026,0,0.053,0,0.079,0l0.094-0.001c4.142-0.043,7.418-3.436,7.375-7.577c-0.043-4.115-3.438-7.422-7.545-7.422    C54.532,96.406,54.505,96.406,54.479,96.406z"/>
		<path id="XMLID_628_" d="M149.253,96.406c-4.142,0-7.5,3.357-7.5,7.5s3.358,7.5,7.5,7.5h26.028c4.142,0,7.5-3.357,7.5-7.5    s-3.358-7.5-7.5-7.5H149.253z"/>
		<path id="XMLID_629_" d="M169.924,240.163v-1.395c0-11.521-9.373-20.894-20.893-20.894s-20.893,9.373-20.893,20.894v1.371h-10.613    l15.822-26.785c5.858-9.92,2.555-22.756-7.364-28.615c-9.919-5.859-22.755-2.556-28.614,7.363l-34.439,58.305    c-3.805,6.443-3.865,14.482-0.156,20.981s10.662,10.536,18.146,10.536h47.218v32.861c0,11.521,9.373,20.893,20.893,20.893    s20.893-9.372,20.893-20.893v-32.885c11.061-0.521,19.897-9.683,19.897-20.869S180.985,240.684,169.924,240.163z M168.929,266.925    h-6.505c-4.142,0-7.5,3.357-7.5,7.5v40.361c0,3.249-2.644,5.893-5.893,5.893s-5.893-2.644-5.893-5.893v-40.361    c0-4.143-3.358-7.5-7.5-7.5H80.921c-2.111,0-4.072-1.139-5.118-2.972c-1.046-1.833-1.029-4.101,0.044-5.918l34.438-58.304    c1.098-1.859,3.066-2.895,5.083-2.895c1.018,0,2.049,0.264,2.987,0.818c2.798,1.652,3.729,5.272,2.077,8.07l-22.505,38.1    c-1.37,2.318-1.391,5.193-0.056,7.532s3.821,3.782,6.514,3.782h31.254c4.142,0,7.5-3.357,7.5-7.5v-8.871    c0-3.25,2.644-5.894,5.893-5.894s5.893,2.644,5.893,5.894v8.871c0,4.143,3.358,7.5,7.5,7.5h6.505c3.249,0,5.893,2.644,5.893,5.893    S172.178,266.925,168.929,266.925z"/>
		<path id="XMLID_632_" d="M388.134,184.739c-9.92-5.859-22.755-2.556-28.614,7.363l-34.439,58.305    c-3.805,6.443-3.865,14.482-0.156,20.981s10.662,10.536,18.146,10.536h47.218v32.861c0,11.521,9.373,20.893,20.893,20.893    s20.893-9.372,20.893-20.893v-32.885c11.061-0.521,19.897-9.683,19.897-20.869s-8.837-20.349-19.897-20.869v-1.395    c0-11.521-9.373-20.894-20.893-20.894s-20.893,9.373-20.893,20.894v1.371h-10.613l15.822-26.785    C401.356,203.435,398.053,190.599,388.134,184.739z M382.583,205.726l-22.505,38.1c-1.37,2.318-1.391,5.193-0.056,7.532    s3.821,3.782,6.514,3.782h31.254c4.142,0,7.5-3.357,7.5-7.5v-8.871c0-3.25,2.644-5.894,5.893-5.894s5.893,2.644,5.893,5.894v8.871    c0,4.143,3.358,7.5,7.5,7.5h6.505c3.249,0,5.893,2.644,5.893,5.893s-2.644,5.893-5.893,5.893h-6.505c-4.142,0-7.5,3.357-7.5,7.5    v40.361c0,3.249-2.644,5.893-5.893,5.893s-5.893-2.644-5.893-5.893v-40.361c0-4.143-3.358-7.5-7.5-7.5h-54.718    c-2.111,0-4.072-1.139-5.118-2.972c-1.046-1.833-1.029-4.101,0.044-5.918l34.438-58.304c1.098-1.859,3.066-2.895,5.083-2.895    c1.018,0,2.049,0.264,2.987,0.818C383.303,199.308,384.235,202.928,382.583,205.726z"/>
		<path id="XMLID_635_" d="M244.158,306.431h23.684c7.885,0,14.299-6.414,14.299-14.299v-66.75c0-7.885-6.415-14.3-14.299-14.3    h-23.684c-7.885,0-14.299,6.415-14.299,14.3v66.75C229.859,300.017,236.273,306.431,244.158,306.431z M244.859,226.082h22.282    v65.349h-22.282V226.082z"/>
		<path id="XMLID_638_" d="M238.862,335.679h34.275c21.092,0,38.251-17.159,38.251-38.251v-77.342    c0-21.092-17.16-38.252-38.251-38.252h-34.275c-21.092,0-38.251,17.16-38.251,38.252v77.342    C200.611,318.52,217.771,335.679,238.862,335.679z M215.611,220.086c0-12.821,10.431-23.252,23.251-23.252h34.275    c12.821,0,23.251,10.431,23.251,23.252v77.342c0,12.82-10.431,23.251-23.251,23.251h-34.275    c-12.821,0-23.251-10.431-23.251-23.251V220.086z"/>
		<path id="XMLID_641_" d="M369.066,398.69c-4.142,0-7.452,3.357-7.452,7.5s3.405,7.5,7.547,7.5s7.5-3.357,7.5-7.5    s-3.358-7.5-7.5-7.5H369.066z"/>
		<path id="XMLID_642_" d="M393.905,398.763c-4.142,0-7.453,3.357-7.453,7.5s3.406,7.5,7.548,7.5s7.5-3.357,7.5-7.5    s-3.358-7.5-7.5-7.5H393.905z"/>
		<path id="XMLID_643_" d="M418.916,398.835l-0.095-0.001c-0.026,0-0.053,0-0.079,0c-4.105,0-7.408,3.308-7.451,7.424    c-0.042,4.142,3.329,7.534,7.47,7.577c0.026,0,0.053,0,0.079,0c4.106,0,7.456-3.308,7.498-7.423    C426.38,402.27,423.057,398.878,418.916,398.835z"/>
		<path id="XMLID_644_" d="M71.242,382.612h24.838c4.142,0,7.5-3.357,7.5-7.5s-3.358-7.5-7.5-7.5H71.242c-4.142,0-7.5,3.357-7.5,7.5    S67.1,382.612,71.242,382.612z"/>
		<path id="XMLID_645_" d="M71.242,413.763h49.677c4.142,0,7.5-3.357,7.5-7.5s-3.358-7.5-7.5-7.5H71.242c-4.142,0-7.5,3.357-7.5,7.5    S67.1,413.763,71.242,413.763z"/>
	</g>
</g>















</svg>
